<?xml version="1.0" standalone="no"?>
<!DOCTYPE svg PUBLIC "-//W3C//DTD SVG 20010904//EN"
 "http://www.w3.org/TR/2001/REC-SVG-20010904/DTD/svg10.dtd">
<svg version="1.0" xmlns="http://www.w3.org/2000/svg"
 width="225.000000pt" height="225.000000pt" viewBox="0 0 225.000000 225.000000"
 preserveAspectRatio="xMidYMid meet">
<metadata>
Created by potrace 1.11, written by Peter Selinger 2001-2013
</metadata>
<g transform="translate(0.000000,225.000000) scale(0.100000,-0.100000)"
fill="#000000" stroke="none">
<path d="M480 2161 c-72 -15 -137 -68 -176 -141 -18 -33 -19 -69 -19 -645 0
-606 0 -610 22 -650 25 -47 74 -95 123 -121 32 -18 69 -19 490 -22 250 -2 458
-6 462 -10 3 -4 10 -24 13 -44 7 -34 5 -38 -14 -38 -12 0 -21 6 -21 15 0 18
-4 18 -69 3 -39 -9 -50 -15 -47 -27 3 -9 10 -35 16 -59 9 -36 14 -42 30 -37
15 5 20 0 26 -29 5 -29 11 -36 30 -36 19 0 24 -7 30 -36 5 -29 10 -35 26 -30
14 3 22 -1 25 -15 4 -14 11 -18 24 -14 14 5 20 -2 30 -33 9 -31 16 -38 30 -35
14 4 20 -4 29 -39 17 -67 19 -70 37 -64 10 3 93 24 186 47 184 46 182 44 156
118 -10 27 -9 34 6 45 16 12 17 18 7 59 -15 59 -15 67 3 67 21 0 19 15 -21
169 l-36 137 -28 -4 -29 -4 22 43 c22 44 22 48 22 639 0 475 -3 603 -14 634
-17 49 -73 111 -125 139 -41 22 -46 22 -626 24 -322 0 -601 -2 -620 -6z m1048
-263 c3 -15 -4 -18 -47 -18 -29 0 -53 -5 -58 -12 -4 -7 -45 -114 -90 -237 -63
-170 -80 -228 -73 -241 24 -45 -6 -100 -55 -100 -14 0 -34 9 -45 20 -17 17
-33 20 -103 20 -71 0 -84 -3 -95 -20 -26 -43 -112 -9 -112 44 0 27 39 66 66
66 13 0 34 -10 47 -23 22 -20 34 -22 102 -20 63 1 81 6 99 22 12 12 27 21 33
21 6 0 13 7 17 15 4 12 -21 15 -180 17 l-185 3 -76 146 c-48 91 -74 152 -70
162 6 15 38 17 322 17 244 0 317 3 320 13 2 6 14 38 26 70 l21 58 66 -3 c54
-2 67 -6 70 -20z m-777 -779 c7 -13 6 -26 -2 -40 -8 -15 -8 -24 0 -32 6 -6 11
-23 11 -39 0 -33 -24 -48 -74 -48 l-36 0 0 89 c0 85 1 90 23 93 37 6 67 -3 78
-23z m586 16 c30 -21 40 -90 19 -138 -12 -31 -20 -37 -45 -37 -40 0 -61 32
-61 93 0 38 5 53 25 72 28 29 33 30 62 10z m-515 -67 c2 -46 7 -73 16 -76 9
-3 12 16 12 72 0 69 2 76 20 76 18 0 20 -7 20 -71 0 -86 -11 -109 -50 -109
-43 0 -60 31 -60 112 0 61 2 68 20 68 17 0 19 -8 22 -72z m124 55 c15 -45 17
-47 23 -18 4 21 13 31 29 33 l22 3 -20 -51 c-11 -28 -20 -69 -20 -90 0 -33 -3
-40 -20 -40 -16 0 -20 7 -20 33 0 19 -9 59 -19 90 -20 57 -20 57 0 57 11 0 22
-8 25 -17z m226 -33 l17 -45 0 48 c1 40 4 47 21 47 19 0 20 -7 20 -91 0 -87
-1 -90 -22 -87 -15 2 -26 16 -37 48 l-16 45 -3 -47 c-2 -34 -7 -48 -18 -48
-11 0 -14 18 -14 91 0 80 2 90 17 87 10 -2 25 -23 35 -48z m248 11 c0 -54 16
-60 23 -10 6 47 11 54 32 46 8 -4 15 -18 15 -34 0 -15 5 -35 10 -43 7 -11 10
-4 10 28 0 29 5 45 15 49 26 9 27 -2 13 -89 -11 -72 -16 -83 -34 -86 -18 -3
-23 4 -31 45 l-10 48 -9 -45 c-7 -33 -15 -46 -30 -48 -17 -3 -21 7 -35 88
l-15 90 23 0 c20 0 23 -5 23 -39z m19 -268 c6 -21 22 -87 37 -148 15 -60 30
-113 33 -117 3 -4 12 -3 20 1 11 7 11 18 1 60 -7 29 -10 54 -7 57 2 3 20 7 39
10 33 6 35 4 42 -27 17 -86 27 -109 46 -109 11 0 20 1 20 3 0 1 -7 27 -15 57
-8 30 -15 56 -15 56 0 1 11 5 24 8 13 3 31 8 39 12 12 4 19 -12 33 -70 14 -60
21 -76 36 -76 22 0 22 11 4 72 -13 41 -13 47 1 52 19 8 33 -1 33 -20 0 -11 6
-13 19 -9 21 6 27 -6 56 -125 9 -36 18 -73 21 -82 3 -10 -2 -19 -15 -23 -18
-5 -18 -9 -5 -58 12 -47 12 -53 -3 -64 -14 -11 -15 -19 -5 -64 7 -29 11 -53
10 -55 -4 -4 -285 -74 -297 -74 -5 0 -15 25 -21 56 -10 49 -14 55 -32 51 -14
-4 -22 0 -25 14 -4 14 -11 18 -24 14 -14 -5 -20 2 -29 34 -8 31 -14 38 -29 34
-16 -4 -21 2 -26 31 -6 29 -12 36 -31 36 -14 0 -24 6 -24 14 0 8 -10 16 -22
18 -13 2 -25 14 -31 31 -11 34 -9 36 37 44 30 5 36 3 36 -12 0 -12 6 -16 20
-12 20 5 20 5 40 -70 8 -34 14 -40 30 -36 13 4 19 11 16 22 -15 49 -116 458
-116 468 0 10 38 30 62 32 4 1 12 -16 17 -36z m368 -35 c-3 -7 -5 -2 -5 12 0
14 2 19 5 13 2 -7 2 -19 0 -25z m-14 -33 c-3 -9 -8 -14 -10 -11 -3 3 -2 9 2
15 9 16 15 13 8 -4z m-13 -29 c0 -2 -8 -10 -17 -17 -16 -13 -17 -12 -4 4 13
16 21 21 21 13z"/>
<path d="M1258 1732 c-49 -3 -58 -6 -58 -22 0 -10 -3 -25 -6 -34 -5 -13 3 -16
49 -16 55 0 56 0 67 36 7 19 10 36 8 37 -1 1 -29 1 -60 -1z"/>
<path d="M760 1725 c0 -4 7 -19 15 -35 15 -29 19 -30 81 -30 64 0 66 1 60 23
-3 12 -6 28 -6 35 0 8 -22 12 -75 12 -41 0 -75 -2 -75 -5z"/>
<path d="M920 1726 c0 -1 5 -17 11 -35 10 -29 14 -31 60 -31 l49 0 0 35 0 35
-60 0 c-33 0 -60 -2 -60 -4z"/>
<path d="M1060 1695 l0 -35 60 0 c52 0 60 2 60 19 0 11 3 26 6 35 5 14 -4 16
-60 16 l-66 0 0 -35z"/>
<path d="M805 1640 c-2 -3 6 -20 17 -38 18 -30 24 -32 75 -32 46 0 54 3 49 16
-3 9 -9 26 -12 39 -5 22 -11 24 -65 23 -33 -1 -62 -4 -64 -8z"/>
<path d="M954 1619 c3 -17 6 -35 6 -40 0 -5 18 -9 40 -9 l40 0 0 40 0 40 -46
0 -46 0 6 -31z"/>
<path d="M1060 1610 l0 -40 44 0 c49 0 51 1 61 48 l7 32 -56 0 -56 0 0 -40z"/>
<path d="M1187 1643 c-3 -5 -8 -23 -12 -40 l-7 -33 50 0 c44 0 51 3 56 24 3
13 9 31 12 40 5 13 -2 16 -44 16 -28 0 -53 -3 -55 -7z"/>
<path d="M862 1525 c10 -22 18 -25 61 -25 41 0 48 3 43 16 -3 9 -6 20 -6 25 0
5 -25 9 -55 9 l-55 0 12 -25z"/>
<path d="M974 1534 c3 -9 6 -20 6 -25 0 -5 14 -9 30 -9 25 0 30 4 30 25 0 22
-4 25 -36 25 -29 0 -35 -3 -30 -16z"/>
<path d="M1060 1525 c0 -22 4 -25 39 -25 33 0 39 3 43 25 5 24 3 25 -38 25
-40 0 -44 -2 -44 -25z"/>
<path d="M1160 1541 c0 -5 -3 -16 -6 -25 -5 -13 2 -16 39 -16 32 0 47 5 51 16
11 29 6 34 -39 34 -25 0 -45 -4 -45 -9z"/>
<path d="M690 1089 c0 -24 23 -21 28 4 2 10 -3 17 -12 17 -10 0 -16 -9 -16
-21z"/>
<path d="M690 1016 c0 -17 5 -26 16 -26 10 0 14 7 12 22 -5 32 -28 35 -28 4z"/>
<path d="M1294 1096 c-9 -23 0 -99 13 -103 15 -5 26 49 18 87 -7 32 -22 39
-31 16z"/>
</g>
</svg>
